<svg xmlns="http://www.w3.org/2000/svg" xmlns:xlink="http://www.w3.org/1999/xlink" viewBox="0 0 753 1335"><defs><style>.cls-1,.cls-18{fill:none;}.cls-2{fill:url(#linear-gradient);}.cls-3{fill:url(#linear-gradient-2);}.cls-4{fill:url(#linear-gradient-3);}.cls-5{fill:url(#linear-gradient-4);}.cls-6{fill:#0300de;}.cls-10,.cls-11,.cls-12,.cls-18,.cls-6,.cls-7{stroke:#000;}.cls-10,.cls-11,.cls-18,.cls-6,.cls-7,.cls-8,.cls-9{stroke-miterlimit:10;}.cls-7{stroke-width:3px;fill:url(#radial-gradient);}.cls-8,.cls-9{stroke:#030017;}.cls-8{fill:url(#linear-gradient-5);}.cls-11,.cls-9{fill:url(#Diamond_Plate_Pattern);}.cls-10{fill:url(#linear-gradient-6);}.cls-12{fill:url(#radial-gradient-2);}.cls-13,.cls-14{font-size:127.94px;letter-spacing:-0.02em;}.cls-13,.cls-15{fill:#2e80ff;}.cls-13,.cls-14,.cls-15,.cls-16{font-family:Century, Century;}.cls-14,.cls-16{fill:#052aa0;}.cls-15,.cls-16{font-size:127.94px;}.cls-17{clip-path:url(#clip-path);}.cls-18{stroke-width:1.4px;}</style><linearGradient id="linear-gradient" x1="19309.87" y1="-8967.39" x2="19339.87" y2="-8997.39" gradientTransform="matrix(-0.71, 0.71, 0.71, 0.71, 20085.47, -7266.02)" gradientUnits="userSpaceOnUse"><stop offset="0" stop-color="#7377ff"/><stop offset="0.44" stop-color="#2700e7"/><stop offset="1" stop-color="#20008a"/></linearGradient><linearGradient id="linear-gradient-2" x1="19314.27" y1="-8971.79" x2="19335.47" y2="-8992.99" gradientTransform="matrix(-0.71, 0.71, 0.71, 0.71, 20085.47, -7266.02)" gradientUnits="userSpaceOnUse"><stop offset="0" stop-color="#20008a"/><stop offset="0.44" stop-color="#2700e7"/><stop offset="1" stop-color="#7377ff"/></linearGradient><linearGradient id="linear-gradient-3" x1="7756.05" y1="-18598.59" x2="7786.05" y2="-18628.59" gradientTransform="matrix(0.71, 0.71, 0.71, -0.71, 7691.05, -18635.54)" xlink:href="#linear-gradient"/><linearGradient id="linear-gradient-4" x1="7760.45" y1="-18602.99" x2="7781.65" y2="-18624.19" gradientTransform="matrix(0.71, 0.71, 0.71, -0.71, 7691.05, -18635.54)" xlink:href="#linear-gradient-2"/><radialGradient id="radial-gradient" cx="376.5" cy="441" r="267.85" gradientUnits="userSpaceOnUse"><stop offset="0" stop-color="#fff"/><stop offset="1" stop-color="#4400a2"/></radialGradient><linearGradient id="linear-gradient-5" x1="-197.25" y1="693.25" x2="313.75" y2="1204.25" gradientTransform="matrix(1, 0, 0, 1, 0, 0)" xlink:href="#linear-gradient-2"/><pattern id="Diamond_Plate_Pattern" data-name="Diamond Plate Pattern" width="93.43" height="68.43" patternUnits="userSpaceOnUse" viewBox="0 0 93.43 68.43"><rect class="cls-1" width="93.43" height="68.43"/><path class="cls-2" d="M48,68.43s2.43-16.57,14.14-28.29S90.43,26,90.43,26,88,42.57,76.28,54.28,48,68.43,48,68.43Z"/><path class="cls-3" d="M65.32,43.32c6-6,13.52-9.33,18.88-11.1-1.76,5.37-5.11,12.89-11.1,18.88S59.59,60.43,54.22,62.2C56,56.84,59.33,49.31,65.32,43.32Z"/><path class="cls-4" d="M45.43,42.43S28.86,40,17.14,28.28,3,0,3,0,19.57,2.43,31.28,14.14,45.43,42.43,45.43,42.43Z"/><path class="cls-5" d="M20.32,25.1c-6-6-9.33-13.51-11.1-18.88C14.59,8,22.11,11.33,28.1,17.32S37.43,30.84,39.2,36.2C33.84,34.44,26.31,31.09,20.32,25.1Z"/></pattern><linearGradient id="linear-gradient-6" x1="-199.25" y1="692.25" x2="311.75" y2="1203.25" gradientTransform="matrix(-1, 0, 0, 1, 749, 0)" xlink:href="#linear-gradient-2"/><radialGradient id="radial-gradient-2" cx="381" cy="407" r="115.5" gradientUnits="userSpaceOnUse"><stop offset="0.27" stop-color="#f2f2f2"/><stop offset="1" stop-color="#93278f"/></radialGradient><clipPath id="clip-path" transform="translate(0 0)"><rect class="cls-1" x="175" y="249" width="414" height="429"/></clipPath></defs><title>Asset 1</title><g id="Layer_2" data-name="Layer 2"><g id="Layer_1-2" data-name="Layer 1"><rect class="cls-6" x="1.5" y="439.5" width="750" height="895"/><image width="852" height="480" transform="translate(2 0) scale(0.88 0.92)" xlink:href="../purpleClouds.jpg"/><rect class="cls-7" x="1.5" y="387.5" width="750" height="107"/><polygon class="cls-8" points="183.5 1334.5 1.5 1334.5 1.5 494.5 183.5 631.5 183.5 1333.5 183.5 1334.5"/><polygon class="cls-9" points="183.5 1334.5 1.5 1334.5 1.5 494.5 183.5 631.5 183.5 1333.5 183.5 1334.5"/><polygon class="cls-10" points="567.5 1333.5 749.5 1333.5 749.5 493.5 567.5 630.5 567.5 1332.5 567.5 1333.5"/><polygon class="cls-11" points="567.5 1333.5 749.5 1333.5 749.5 493.5 567.5 630.5 567.5 1332.5 567.5 1333.5"/><path class="cls-12" d="M496.5,407a115.38,115.38,0,1,1-1-15.5A116.63,116.63,0,0,1,496.5,407Z" transform="translate(0 0)"/><text class="cls-13" transform="translate(130.78 490.21) scale(1.06 1)">P</text><text class="cls-14" transform="translate(138.78 490.21) scale(1.06 1)">P</text><text class="cls-15" transform="translate(528.78 485.48) scale(1.06 1)">S</text><text class="cls-16" transform="translate(537.78 485.48) scale(1.06 1)">S</text><g class="cls-17"><line class="cls-18" x1="341.29" y1="371.27" x2="426.16" y2="371.27"/><line class="cls-18" x1="337.15" y1="378.41" x2="430.99" y2="378.41"/><line class="cls-18" x1="365.44" y1="377.7" x2="365.44" y2="396.29"/><line class="cls-18" x1="397.18" y1="379.13" x2="397.18" y2="390.57"/><line class="cls-18" x1="364.75" y1="395.57" x2="378.55" y2="389.86"/><line class="cls-18" x1="378.55" y1="389.86" x2="368.89" y2="412.74"/><line class="cls-18" x1="368.89" y1="412.74" x2="385.45" y2="407.02"/><g class="cls-17"><path d="M383.38,334.8a10,10,0,1,1-9.66,10,9.85,9.85,0,0,1,9.66-10m0-1.43a11.45,11.45,0,1,0,11,11.44,11.24,11.24,0,0,0-11-11.44" transform="translate(0 0)"/><line class="cls-18" x1="385.45" y1="407.02" x2="374.41" y2="432.76"/><line class="cls-18" x1="374.41" y1="432.76" x2="396.49" y2="409.88"/><line class="cls-18" x1="396.49" y1="389.86" x2="390.97" y2="395.57"/><line class="cls-18" x1="390.97" y1="395.57" x2="402.01" y2="392.72"/><line class="cls-18" x1="402.01" y1="392.72" x2="393.73" y2="404.15"/><line class="cls-18" x1="393.73" y1="404.15" x2="402.01" y2="401.3"/><line class="cls-18" x1="402.01" y1="401.3" x2="396.49" y2="409.88"/><ellipse class="cls-18" cx="382" cy="407.73" rx="116.61" ry="116.55"/><path d="M382.92,297.62l94,168.74h-188Zm0-5.72L284.13,469.22H481.72Z" transform="translate(0 0)"/></g></g></g></g></svg>